<svg width="70" height="70" viewBox="0 0 70 70" fill="none" xmlns="http://www.w3.org/2000/svg">
<g clip-path="url(#clip0_26_2)">
<path d="M59.6152 10.3838L69.4619 35L59.6152 59.6152L35 69.4619L10.3838 59.6152L0.538086 35L10.3838 10.3838L35 0.538086L59.6152 10.3838Z" fill="#9B9CA1" stroke="#636363"/>
<path d="M37.5156 18.4834L40.9229 27L37.5156 35.5156L29 38.9229L20.4834 35.5156L17.0762 27L20.4834 18.4834L29 15.0762L37.5156 18.4834Z" fill="#747479" stroke="#818181" stroke-width="2"/>
<path d="M53.9004 44.0986L55.4609 48L53.9004 51.9004L50 53.4609L46.0986 51.9004L44.5381 48L46.0986 44.0986L50 42.5381L53.9004 44.0986Z" fill="#4F5055" stroke="#777879"/>
<path d="M26.9004 50.0986L28.4609 54L26.9004 57.9004L23 59.4609L19.0986 57.9004L17.5381 54L19.0986 50.0986L23 48.5381L26.9004 50.0986Z" fill="#303136" stroke="#616370"/>
</g>
<defs>
<clipPath id="clip0_26_2">
<rect width="70" height="70" fill="white"/>
</clipPath>
</defs>
</svg>
