<svg width="70" height="70" viewBox="0 0 70 70" fill="none" xmlns="http://www.w3.org/2000/svg">
<g clip-path="url(#clip0_19_14)">
<path d="M59.6152 10.3838L69.4619 35L59.6152 59.6152L35 69.4619L10.3838 59.6152L0.538086 35L10.3838 10.3838L35 0.538086L59.6152 10.3838Z" fill="#CED9D5" stroke="#84918F"/>
<path d="M37.5156 18.4834L40.9229 27L37.5156 35.5156L29 38.9229L20.4834 35.5156L17.0762 27L20.4834 18.4834L29 15.0762L37.5156 18.4834Z" fill="#A6B3B1" stroke="#B9C8C5" stroke-width="2"/>
<path d="M24.0322 46.0869L25.4668 50L24.0322 53.9121L20.5 55.4541L16.9668 53.9121L15.5322 50L16.9668 46.0869L20.5 44.5449L24.0322 46.0869Z" fill="#A6B3B1" stroke="#ABB9B9"/>
<path d="M53.9004 44.0986L55.4609 48L53.9004 51.9004L50 53.4609L46.0986 51.9004L44.5381 48L46.0986 44.0986L50 42.5381L53.9004 44.0986Z" fill="#84918F" stroke="#ABB9B9"/>
</g>
<defs>
<clipPath id="clip0_19_14">
<rect width="70" height="70" fill="white"/>
</clipPath>
</defs>
</svg>
