<svg width="70" height="70" viewBox="0 0 70 70" fill="none" xmlns="http://www.w3.org/2000/svg">
<g clip-path="url(#clip0_19_14)">
<path d="M59.6152 10.3838L69.4619 35L59.6152 59.6152L35 69.4619L10.3838 59.6152L0.538086 35L10.3838 10.3838L35 0.538086L59.6152 10.3838Z" fill="#CED9D5" stroke="#84918F"/>
<path d="M52.5156 15.4834L55.9229 24L52.5156 32.5156L44 35.9229L35.4834 32.5156L32.0762 24L35.4834 15.4834L44 12.0762L52.5156 15.4834Z" fill="#A6B3B1" stroke="#B9C8C5" stroke-width="2"/>
<path d="M29.0322 35.0869L30.4668 39L29.0322 42.9121L25.5 44.4541L21.9668 42.9121L20.5322 39L21.9668 35.0869L25.5 33.5449L29.0322 35.0869Z" fill="#A6B3B1" stroke="#ABB9B9"/>
<path d="M35.9004 53.0986L37.4609 57L35.9004 60.9004L32 62.4609L28.0986 60.9004L26.5381 57L28.0986 53.0986L32 51.5381L35.9004 53.0986Z" fill="#84918F" stroke="#ABB9B9"/>
</g>
<defs>
<clipPath id="clip0_19_14">
<rect width="70" height="70" fill="white"/>
</clipPath>
</defs>
</svg>
