<svg width="70" height="70" viewBox="0 0 70 70" fill="none" xmlns="http://www.w3.org/2000/svg">
<g clip-path="url(#clip0_28_11)">
<path d="M59.6152 10.3838L69.4619 35L59.6152 59.6152L35 69.4619L10.3838 59.6152L0.538086 35L10.3838 10.3838L35 0.538086L59.6152 10.3838Z" fill="#9A9CCB" stroke="#75768C"/>
<path d="M45.5156 15.4834L48.9229 24L45.5156 32.5156L37 35.9229L28.4834 32.5156L25.0762 24L28.4834 15.4834L37 12.0762L45.5156 15.4834Z" fill="#605F9D" stroke="#8483CC" stroke-width="2"/>
<path d="M44.9004 47.0986L46.4609 51L44.9004 54.9004L41 56.4609L37.0986 54.9004L35.5381 51L37.0986 47.0986L41 45.5381L44.9004 47.0986Z" fill="#343365" stroke="#656588"/>
<path d="M21.9004 39.0986L23.4609 43L21.9004 46.9004L18 48.4609L14.0986 46.9004L12.5381 43L14.0986 39.0986L18 37.5381L21.9004 39.0986Z" fill="#6767A2" stroke="#7B7BBC"/>
</g>
<defs>
<clipPath id="clip0_28_11">
<rect width="70" height="70" fill="white"/>
</clipPath>
</defs>
</svg>
