<svg width="100" height="100" viewBox="0 0 100 100" fill="none" xmlns="http://www.w3.org/2000/svg">
<g clip-path="url(#clip0_7_107)">
<circle cx="50" cy="50" r="50" fill="#21A0E0"/>
<rect x="42" y="57" width="10" height="10" rx="2" fill="#207B20"/>
<rect x="47" y="62" width="10" height="10" rx="2" fill="#207B20"/>
<rect x="42" y="57" width="10" height="10" rx="2" fill="#207B20"/>
<rect x="39" y="33" width="10" height="10" rx="2" fill="#207B20"/>
<rect x="43" y="16" width="28" height="18" rx="2" fill="#207B20"/>
<rect x="46" y="30" width="23" height="10" rx="2" fill="#207B20"/>
<rect x="51" y="38" width="10" height="10" rx="2" fill="#207B20"/>
<rect x="69" y="49" width="10" height="10" rx="2" fill="#207B20"/>
<rect x="74" y="57" width="10" height="10" rx="2" fill="#207B20"/>
<rect x="88" y="68" width="10" height="10" rx="2" fill="#207B20"/>
<rect x="80" y="29" width="10" height="10" rx="2" fill="#C5BEA6"/>
<rect x="85" y="35" width="10" height="13" rx="2" fill="#C5BEA6"/>
<rect x="88" y="20" width="10" height="34" rx="2" fill="#207B20"/>
<rect x="94" y="40" width="10" height="34" rx="2" fill="#207B20"/>
<rect x="72" y="33" width="10" height="18" rx="2" fill="#207B20"/>
<rect x="66" y="25" width="10" height="10" rx="2" fill="#207B20"/>
<rect x="66" y="20" width="10" height="10" rx="2" fill="#207B20"/>
<rect x="64" y="30" width="15" height="21" rx="2" fill="#207B20"/>
<rect x="61" y="-2" width="10" height="10" rx="2" fill="#207B20"/>
<rect x="48" y="11" width="10" height="10" rx="2" fill="#207B20"/>
<rect x="45" y="-3" width="10" height="10" rx="2" fill="#207B20"/>
<rect x="55" y="15" width="10" height="10" rx="2" fill="#207B20"/>
<rect x="61" y="11" width="10" height="10" rx="2" fill="#207B20"/>
<rect x="42" y="69" width="10" height="10" rx="2" fill="#207B20"/>
<rect x="34" y="74" width="26" height="10" rx="2" fill="#207B20"/>
<rect x="37" y="64" width="10" height="10" rx="2" fill="#207B20"/>
<rect x="34" y="69" width="10" height="10" rx="2" fill="#207B20"/>
<rect x="40" y="95" width="10" height="10" rx="2" fill="#207B20"/>
<rect x="47" y="93" width="10" height="10" rx="2" fill="#207B20"/>
<rect x="53" y="95" width="19" height="10" rx="2" fill="#207B20"/>
<rect x="34" y="81" width="10" height="10" rx="2" fill="#207B20"/>
<rect x="43" y="76" width="10" height="10" rx="2" fill="#207B20"/>
<rect x="52" y="76" width="10" height="13" rx="2" fill="#207B20"/>
<rect x="29" y="74" width="8" height="5" rx="2" fill="#207B20"/>
<rect x="34" y="38" width="8" height="5" rx="2" fill="#207B20"/>
<rect x="14" y="47" width="5" height="5" rx="2" fill="#207B20"/>
<rect x="39" y="8" width="5" height="5" rx="2" fill="#207B20"/>
<rect x="37" y="6" width="5" height="5" rx="2" fill="#207B20"/>
<rect x="31" y="1" width="5" height="5" rx="2" fill="#207B20"/>
<rect x="53" y="67" width="8" height="5" rx="2" fill="#207B20"/>
<rect x="40" y="88" width="8" height="5" rx="2" fill="#207B20"/>
<rect x="53" y="74" width="13" height="5" rx="2" fill="#207B20"/>
<rect x="44" y="88" width="5" height="12" rx="2" fill="#207B20"/>
<rect x="74" y="14" width="5" height="12" rx="2" fill="#207B20"/>
<rect x="85" y="24" width="5" height="12" rx="2" fill="#C5BEA6"/>
<rect x="85" y="64" width="5" height="12" rx="2" fill="#C5BEA6"/>
<rect x="66" y="5" width="5" height="12" rx="2" fill="#207B20"/>
<rect x="85" y="35" width="10" height="13" rx="2" fill="#C5BEA6"/>
<rect x="88" y="45" width="10" height="14" rx="2" fill="#C5BEA6"/>
<rect x="85" y="57" width="10" height="12" rx="2" fill="#C5BEA6"/>
</g>
<rect x="45" y="45" width="10" height="10" rx="2" fill="#D9D9D9"/>
<rect x="50" y="50" width="10" height="10" rx="2" fill="#D9D9D9"/>
<defs>
<clipPath id="clip0_7_107">
<rect width="100" height="100" rx="50" fill="white"/>
</clipPath>
</defs>
</svg>
